<svg xmlns="http://www.w3.org/2000/svg" version="1.1" xmlns:xlink="http://www.w3.org/1999/xlink" xmlns:svgjs="http://svgjs.dev/svgjs" viewBox="0 0 11.63671875 11.954031503495582"><g transform="matrix(0.8571428571428571,0,0,0.8571428571428571,1.6623883928571432,9.09769219967447)"><g clip-path="url(#SvgjsClipPath12064)"><g clip-path="url(#SvgjsClipPath12062329ccbf2-c84b-4fd4-a129-d33d2b750d6f)"><path d=" M 3.3534809283845393 -8.030819617676157 L 1.2760062895041946 -5.953177017228241 L 1.2760062895041946 -3.015193277295347 L 3.3534809283845393 -0.9377186384150038 L 6.291464668317433 -0.9377186384150038 L 8.368939307197778 -3.015193277295347 L 8.368939307197778 -5.953177017228241 L 6.291464668317433 -8.030819617676157 Z M 6.357935458683227 -8.191306895489205 L 3.287010138018747 -8.191306895489205 L 1.1156869732587142 -6.019479846026464 L 1.1156869732587142 -2.9487224869295545 L 3.287010138018747 -0.7772313606019523 L 6.357935458683227 -0.7772313606019523 L 8.52942658501083 -2.9487224869295545 L 8.52942658501083 -6.019479846026464 Z" fill="#000000" transform="matrix(1,0,0,1,0,0)" fill-rule="evenodd"></path></g><g clip-path="url(#SvgjsClipPath12062329ccbf2-c84b-4fd4-a129-d33d2b750d6f)"><path d=" M 3.506997801143439 -7.624814518467787 L 1.6468234403066675 -5.764640157631016 L 1.6468234403066675 -3.1337321536078115 L 3.506997801143439 -1.2735577927710393 L 6.137737843599072 -1.2735577927710393 L 7.997912204435844 -3.1337321536078115 L 7.997912204435844 -5.764472196063446 L 6.137737843599072 -7.624646556900217 Z M 6.204376595532435 -7.785301796280837 L 3.4405270107776458 -7.785301796280837 L 1.486210191317939 -5.830942986429238 L 1.486210191317939 -3.06709340167445 L 3.440527010777646 -1.112734591822849 L 6.204376595532435 -1.112734591822849 L 8.158735405384034 -3.06709340167445 L 8.158735405384034 -5.830942986429238 Z" fill="#000000" transform="matrix(1,0,0,1,0,0)" fill-rule="evenodd"></path></g><g clip-path="url(#SvgjsClipPath12062329ccbf2-c84b-4fd4-a129-d33d2b750d6f)"><path d=" M 7.63116812164694 -7.257734512543745 L 2.013819465446924 -7.257734512543745 L 2.013819465446924 -1.6403858563437277 L 7.63116812164694 -1.6403858563437277 Z M 1.8532901972419809 -7.418221790356796 L 1.8532901972419809 -1.4798565881387846 L 7.791655399459993 -1.4798565881387846 L 7.791655399459993 -7.418221790356795 Z" fill="#000000" transform="matrix(1,0,0,1,0,0)" fill-rule="evenodd"></path></g><g clip-path="url(#SvgjsClipPath12062329ccbf2-c84b-4fd4-a129-d33d2b750d6f)"><path d=" M 8.82092388552841 -4.44903918924779 L 4.8486328125 -8.421120310316738 L 0.8765516914310523 -4.44903918924779 L 4.8486328125 -0.4767481162193796 Z M 4.8486328125 -8.648078378495581 L 0.6495936232522093 -4.44903918924779 L 4.8486328125 -0.25 L 9.04767200174779 -4.44903918924779 Z" fill="#000000" transform="matrix(1,0,0,1,0,0)" fill-rule="evenodd"></path></g><path d=" M 4.015985113505042 -3.328464539551433 C 3.856199469011302 -3.328464539551433 3.7083458693985882 -3.3569976903538867 3.5724243146669004 -3.4140639919587934 C 3.4365027599352125 -3.4711302935637005 3.3171823111249523 -3.550504331250526 3.2144629682361194 -3.6521861050192697 C 3.111743625347287 -3.7538678787880135 3.0318508031004168 -3.872669543038229 2.9747845014955097 -4.008591097769916 C 2.917718199890603 -4.144512652501604 2.8891850490881494 -4.291328682994228 2.8891850490881494 -4.44903918924779 C 2.8891850490881494 -4.60882483374153 2.917718199890603 -4.756678433354244 2.9747845014955097 -4.892599988085932 C 3.0318508031004168 -5.02852154281762 3.111743625347287 -5.147323207067835 3.2144629682361194 -5.249004980836578 C 3.3171823111249523 -5.350686754605322 3.4365027599352125 -5.429542007732103 3.5724243146669004 -5.485570740216921 C 3.7083458693985882 -5.541599472701739 3.856199469011302 -5.569613838944147 4.015985113505042 -5.569613838944147 C 4.121817163754143 -5.569613838944147 4.22401772208293 -5.557681794063122 4.322586788491407 -5.53381770430107 C 4.421155854899882 -5.509953614539017 4.5109055837876 -5.47311991077585 4.5918359751545585 -5.423316593011568 C 4.612587357556343 -5.412940901810675 4.627632109797637 -5.398414934129427 4.63697023187844 -5.37973868996782 C 4.646308353959243 -5.361062445806215 4.650977414999645 -5.341348632524519 4.650977414999645 -5.320597250122734 C 4.650977414999645 -5.285319900039701 4.639045370118618 -5.255230395557114 4.615181280356566 -5.230328736674973 C 4.5913171905945145 -5.205427077792831 4.56382160891215 -5.19297624835176 4.532694535309473 -5.19297624835176 C 4.520243705868403 -5.19297624835176 4.508311660987377 -5.195051386591939 4.496898400666395 -5.199201663072296 C 4.485485140345414 -5.203351939552653 4.473553095464387 -5.20750221603301 4.4611022660233175 -5.211652492513367 C 4.3967729805777855 -5.2448547043562215 4.327255849531808 -5.271312716918497 4.252550872885384 -5.291026530200192 C 4.17784589623896 -5.310740343481887 4.098990643112179 -5.320597250122734 4.015985113505042 -5.320597250122734 C 3.852049192530945 -5.320597250122734 3.7052331620383203 -5.282207192679433 3.5755370220271683 -5.205427077792831 C 3.4458408820160153 -5.128646962906229 3.3436403236872274 -5.024890050897307 3.2689353470408036 -4.894156341766066 C 3.1942303703943797 -4.763422632634824 3.156877882071168 -4.615050248462065 3.156877882071168 -4.44903918924779 C 3.156877882071168 -4.285103268273693 3.1942303703943797 -4.13724966866098 3.2689353470408036 -4.005478390409649 C 3.3436403236872274 -3.8737071121583178 3.4458408820160153 -3.769431415589352 3.5755370220271683 -3.6926513007027495 C 3.7052331620383203 -3.6158711858161467 3.852049192530945 -3.577481128372846 4.015985113505042 -3.577481128372846 C 4.098990643112179 -3.577481128372846 4.18459009551954 -3.588894388693827 4.2727834707271235 -3.6117209093357903 C 4.360976845934707 -3.634547429977753 4.436200607141176 -3.663599365340251 4.498454754346529 -3.6988767154232844 L 4.476665802824655 -3.6241717387768606 L 4.476665802824655 -4.280952991793336 L 4.526469120588938 -4.237375088749589 L 4.050224894467986 -4.237375088749589 C 4.0149475443849525 -4.237375088749589 3.98537682446241 -4.249307133630616 3.961512734700358 -4.2731712233926675 C 3.9376486449383057 -4.297035313154719 3.92571660005728 -4.326606033077263 3.92571660005728 -4.361883383160296 C 3.92571660005728 -4.397160733243329 3.9376486449383057 -4.426731453165871 3.961512734700358 -4.450595542927924 C 3.98537682446241 -4.474459632689976 4.0149475443849525 -4.486391677571001 4.050224894467986 -4.486391677571001 L 4.6167376340367 -4.486391677571001 C 4.6540901223599125 -4.486391677571001 4.684179626842499 -4.473940848129931 4.707006147484462 -4.44903918924779 C 4.729832668126425 -4.424137530365649 4.741245928447406 -4.394048025883062 4.741245928447406 -4.358770675800027 L 4.741245928447406 -3.639735275578199 C 4.741245928447406 -3.6148336166960577 4.735539298286915 -3.593044665174184 4.724126037965934 -3.574368421012578 C 4.712712777644953 -3.555692176850972 4.697668025403659 -3.540128640049634 4.678991781242053 -3.527677810608563 C 4.585610560434024 -3.4674988016433885 4.482372432985146 -3.41925183755924 4.369277398895421 -3.382936918356117 C 4.256182364805696 -3.3466219991529944 4.13841826967557 -3.328464539551433 4.015985113505042 -3.328464539551433 M 6.720905011428027 -5.541599472701739 C 6.75618236151106 -5.541599472701739 6.786271865993648 -5.530704996940802 6.811173524875787 -5.508916045418928 C 6.836075183757929 -5.487127093897055 6.848526013199001 -5.458593943094601 6.848526013199001 -5.423316593011568 C 6.848526013199001 -5.40671548709014 6.844375736718645 -5.388039242928534 6.836075183757931 -5.3672878605267496 L 6.0236585627280705 -3.440522004521069 C 6.011207733287 -3.4135452073987493 5.994087842805528 -3.3933126095570096 5.972298891283653 -3.3798242109958494 C 5.950509939761781 -3.3663358124346896 5.927164634559773 -3.3595916131541097 5.9022629756776315 -3.3595916131541097 C 5.87943645503567 -3.3616667513942877 5.857647503513796 -3.369448519794957 5.836896121112011 -3.382936918356117 C 5.816144738710227 -3.396425316917277 5.800581201908889 -3.4156203456389274 5.790205510707997 -3.440522004521069 L 4.980901597038405 -5.364175153166482 C 4.976751320558048 -5.3724757061271955 4.97363861319778 -5.381295043647954 4.971563474957602 -5.390633165728757 C 4.969488336717424 -5.39997128780956 4.968450767597334 -5.409828194450407 4.968450767597334 -5.4202038856513 C 4.968450767597334 -5.45963151221469 4.982457950718539 -5.490239801257323 5.010472316960948 -5.512028752779195 C 5.038486683203357 -5.533817704301069 5.0659822648857205 -5.544712180062006 5.09295906200804 -5.544712180062006 C 5.148987794492859 -5.544712180062006 5.189452990176338 -5.515660244699508 5.21435464905848 -5.457556373974512 L 5.9582917081624505 -3.683313178621946 L 5.886699438876294 -3.683313178621946 L 6.6057348390981225 -5.463781788695047 C 6.630636497980264 -5.515660244699508 6.6690265554235655 -5.541599472701739 6.720905011428027 -5.541599472701739" fill="#000000" transform="matrix(1,0,0,1,0,0)" fill-rule="nonzero"></path></g><g><path d=" M 0.582 1.1025000000000003 Q 0.339 1.1025000000000003 0.20775000000000002 0.9727500000000002 Q 0.0765 0.8430000000000002 0.0765 0.5700000000000003 Q 0.0765 0.3885000000000002 0.1395 0.27075000000000027 Q 0.2025 0.15300000000000025 0.3225 0.09525000000000017 Q 0.4425 0.03750000000000031 0.6105 0.03750000000000031 Q 0.711 0.03750000000000031 0.7995 0.060000000000000275 Q 0.888 0.08250000000000024 0.95625 0.12900000000000023 Q 1.0245 0.1755000000000002 1.06275 0.2452500000000002 Q 1.101 0.3150000000000003 1.101 0.41100000000000025 L 0.8745 0.41100000000000025 Q 0.8745 0.36450000000000027 0.8542500000000001 0.32850000000000024 Q 0.834 0.2925000000000002 0.798 0.2685000000000002 Q 0.762 0.24450000000000027 0.7155 0.23250000000000026 Q 0.669 0.22050000000000025 0.618 0.22050000000000025 Q 0.54 0.22050000000000025 0.4815 0.24075000000000024 Q 0.423 0.26100000000000023 0.38475 0.30225000000000024 Q 0.34650000000000003 0.34350000000000025 0.327 0.40500000000000025 Q 0.3075 0.46650000000000025 0.3075 0.5475000000000002 L 0.3075 0.5925000000000002 Q 0.3075 0.7050000000000003 0.3405 0.7770000000000002 Q 0.3735 0.8490000000000002 0.4395 0.8842500000000002 Q 0.5055000000000001 0.9195000000000002 0.603 0.9195000000000002 Q 0.684 0.9195000000000002 0.74625 0.8947500000000003 Q 0.8085 0.8700000000000002 0.84375 0.8235000000000002 Q 0.879 0.7770000000000002 0.879 0.7095000000000002 L 0.879 0.6990000000000003 L 0.5715 0.6990000000000003 L 0.5715 0.5280000000000002 L 1.101 0.5280000000000002 L 1.101 1.0845000000000002 L 0.9540000000000001 1.0845000000000002 L 0.9345 0.9735000000000003 Q 0.8895000000000001 1.0170000000000003 0.83775 1.0455000000000003 Q 0.786 1.0740000000000003 0.723 1.0882500000000002 Q 0.66 1.1025000000000003 0.582 1.1025000000000003 M 1.5075029296875002 1.1025000000000003 Q 1.4685029296875003 1.1025000000000003 1.4242529296875002 1.0935000000000001 Q 1.3800029296875003 1.0845000000000002 1.3410029296875003 1.0612500000000002 Q 1.3020029296875002 1.0380000000000003 1.2772529296875001 0.9937500000000002 Q 1.2525029296875003 0.9495000000000002 1.2525029296875003 0.8805000000000003 Q 1.2525029296875003 0.7980000000000003 1.2885029296875001 0.7440000000000002 Q 1.3245029296875002 0.6900000000000002 1.3912529296875003 0.6592500000000002 Q 1.4580029296875003 0.6285000000000003 1.5510029296875003 0.6165000000000003 Q 1.6440029296875003 0.6045000000000003 1.7565029296875 0.6045000000000003 L 1.7565029296875 0.5460000000000003 Q 1.7565029296875 0.5115000000000002 1.7452529296875001 0.4860000000000002 Q 1.7340029296875001 0.46050000000000024 1.7062529296875002 0.44550000000000023 Q 1.6785029296875003 0.4305000000000002 1.6290029296875002 0.4305000000000002 Q 1.5795029296875003 0.4305000000000002 1.5487529296875002 0.4425000000000002 Q 1.5180029296875002 0.45450000000000024 1.5052529296875004 0.4732500000000003 Q 1.4925029296875003 0.4920000000000002 1.4925029296875003 0.5145000000000002 L 1.4925029296875003 0.5325000000000002 L 1.2900029296875002 0.5325000000000002 Q 1.2885029296875001 0.5250000000000002 1.2885029296875001 0.5182500000000002 Q 1.2885029296875001 0.5115000000000002 1.2885029296875001 0.5010000000000002 Q 1.2885029296875001 0.4320000000000003 1.3305029296875002 0.38175000000000026 Q 1.3725029296875002 0.33150000000000024 1.4490029296875002 0.3045000000000002 Q 1.5255029296875002 0.2775000000000002 1.6275029296875 0.2775000000000002 Q 1.7370029296875003 0.2775000000000002 1.8112529296875002 0.30600000000000027 Q 1.8855029296875 0.33450000000000024 1.9252529296875003 0.39000000000000024 Q 1.9650029296875002 0.44550000000000023 1.9650029296875002 0.5295000000000002 L 1.9650029296875002 0.8880000000000002 Q 1.9650029296875002 0.9150000000000003 1.9807529296875002 0.9277500000000003 Q 1.9965029296875003 0.9405000000000002 2.0160029296875 0.9405000000000002 L 2.0655029296875003 0.9405000000000002 L 2.0655029296875003 1.0770000000000002 Q 2.0505029296875 1.0845000000000002 2.0190029296875003 1.0927500000000003 Q 1.9875029296875002 1.1010000000000002 1.9425029296875003 1.1010000000000002 Q 1.8990029296875002 1.1010000000000002 1.8652529296875002 1.0882500000000002 Q 1.8315029296875003 1.0755000000000003 1.8090029296875003 1.0522500000000004 Q 1.7865029296875004 1.0290000000000001 1.7775029296875002 0.9960000000000002 L 1.7670029296875003 0.9960000000000002 Q 1.7415029296875002 1.0275000000000003 1.7047529296875004 1.0515000000000003 Q 1.6680029296875003 1.0755000000000003 1.6192529296875002 1.0890000000000002 Q 1.5705029296875002 1.1025000000000003 1.5075029296875002 1.1025000000000003 M 1.5780029296875002 0.9450000000000003 Q 1.6200029296875003 0.9450000000000003 1.6530029296875002 0.9322500000000002 Q 1.6860029296875 0.9195000000000002 1.7085029296875003 0.8977500000000003 Q 1.7310029296875002 0.8760000000000002 1.7437529296875003 0.8445000000000003 Q 1.7565029296875 0.8130000000000002 1.7565029296875 0.7770000000000002 L 1.7565029296875 0.7335000000000003 Q 1.6725029296875003 0.7335000000000003 1.6065029296875002 0.7447500000000002 Q 1.5405029296875004 0.7560000000000002 1.5022529296875002 0.7830000000000003 Q 1.4640029296875001 0.8100000000000003 1.4640029296875001 0.8580000000000002 Q 1.4640029296875001 0.8850000000000002 1.4775029296875002 0.9045000000000003 Q 1.4910029296875003 0.9240000000000003 1.5165029296875003 0.9345000000000002 Q 1.5420029296875002 0.9450000000000003 1.5780029296875002 0.9450000000000003 M 2.448028564453125 1.1025000000000003 Q 2.350528564453125 1.1025000000000003 2.279278564453125 1.0582500000000001 Q 2.208028564453125 1.0140000000000002 2.169028564453125 0.9225000000000002 Q 2.130028564453125 0.8310000000000002 2.130028564453125 0.6885000000000002 Q 2.130028564453125 0.5460000000000003 2.169778564453125 0.45525000000000027 Q 2.209528564453125 0.36450000000000027 2.279278564453125 0.3210000000000002 Q 2.349028564453125 0.2775000000000002 2.440528564453125 0.2775000000000002 Q 2.491528564453125 0.2775000000000002 2.5357785644531248 0.2887500000000002 Q 2.580028564453125 0.30000000000000027 2.613778564453125 0.3240000000000002 Q 2.647528564453125 0.3480000000000002 2.671528564453125 0.3825000000000002 L 2.680528564453125 0.3825000000000002 L 2.680528564453125 2.220446049250313e-16 L 2.889028564453125 2.220446049250313e-16 L 2.889028564453125 1.0845000000000002 L 2.718028564453125 1.0845000000000002 L 2.701528564453125 0.9780000000000002 L 2.691028564453125 0.9780000000000002 Q 2.6520285644531247 1.0410000000000001 2.589028564453125 1.0717500000000002 Q 2.526028564453125 1.1025000000000003 2.448028564453125 1.1025000000000003 M 2.514028564453125 0.9315000000000002 Q 2.572528564453125 0.9315000000000002 2.609278564453125 0.9045000000000003 Q 2.646028564453125 0.8775000000000002 2.664028564453125 0.8265000000000002 Q 2.682028564453125 0.7755000000000003 2.682028564453125 0.7050000000000003 L 2.682028564453125 0.6780000000000002 Q 2.682028564453125 0.6255000000000002 2.672278564453125 0.5820000000000002 Q 2.662528564453125 0.5385000000000002 2.6415285644531252 0.5092500000000002 Q 2.620528564453125 0.4800000000000002 2.589028564453125 0.4642500000000003 Q 2.557528564453125 0.44850000000000023 2.514028564453125 0.44850000000000023 Q 2.451028564453125 0.44850000000000023 2.413528564453125 0.4732500000000003 Q 2.376028564453125 0.4980000000000002 2.359528564453125 0.5482500000000002 Q 2.343028564453125 0.5985000000000003 2.343028564453125 0.6735000000000002 L 2.343028564453125 0.7080000000000002 Q 2.343028564453125 0.7830000000000003 2.359528564453125 0.8325000000000002 Q 2.376028564453125 0.8820000000000002 2.413528564453125 0.9067500000000003 Q 2.451028564453125 0.9315000000000002 2.514028564453125 0.9315000000000002 M 3.2099853515625 1.3665000000000003 Q 3.1574853515625 1.3665000000000003 3.1109853515625 1.3447500000000003 Q 3.0644853515625 1.3230000000000002 3.0359853515625 1.2810000000000001 Q 3.0074853515625 1.2390000000000003 3.0074853515625 1.1805000000000003 Q 3.0074853515625 1.1145000000000003 3.0457353515625 1.0747500000000003 Q 3.0839853515625 1.0350000000000001 3.1319853515625 1.0155000000000003 Q 3.0974853515625 0.9960000000000002 3.0757353515625 0.9645000000000002 Q 3.0539853515625 0.9330000000000003 3.0539853515625 0.8910000000000002 Q 3.0539853515625 0.8325000000000002 3.0967353515625 0.7957500000000002 Q 3.1394853515625 0.7590000000000002 3.1949853515625 0.7485000000000002 Q 3.1394853515625 0.7140000000000002 3.1087353515625 0.6607500000000002 Q 3.0779853515625 0.6075000000000002 3.0779853515625 0.5415000000000002 Q 3.0779853515625 0.4560000000000002 3.1207353515625 0.3975000000000002 Q 3.1634853515625 0.3390000000000002 3.2437353515625 0.30825000000000025 Q 3.3239853515625 0.2775000000000002 3.4334853515625 0.2775000000000002 Q 3.4769853515625 0.2775000000000002 3.5152353515625 0.28200000000000025 Q 3.5534853515625002 0.2865000000000002 3.5849853515625 0.29700000000000026 Q 3.6404853515625 0.26400000000000023 3.6607353515625 0.22425000000000017 Q 3.6809853515625 0.18450000000000022 3.6824853515625 0.1605000000000002 L 3.8759853515625 0.1605000000000002 Q 3.8759853515625 0.2160000000000002 3.8557353515625 0.2565000000000002 Q 3.8354853515625003 0.29700000000000026 3.7979853515625 0.32325000000000026 Q 3.7604853515625 0.34950000000000025 3.7079853515625 0.36150000000000027 Q 3.7469853515625 0.3945000000000002 3.7679853515625 0.4410000000000003 Q 3.7889853515625003 0.48750000000000027 3.7889853515625003 0.5415000000000002 Q 3.7889853515625003 0.6255000000000002 3.7484853515625 0.6847500000000002 Q 3.7079853515625 0.7440000000000002 3.6337353515625 0.7755000000000003 Q 3.5594853515625 0.8070000000000002 3.4559853515625 0.8070000000000002 L 3.3359853515625 0.8070000000000002 Q 3.2999853515625 0.8070000000000002 3.2819853515625 0.8197500000000002 Q 3.2639853515625 0.8325000000000002 3.2639853515625 0.8565000000000003 Q 3.2639853515625 0.8760000000000002 3.2797353515625 0.8902500000000002 Q 3.2954853515625 0.9045000000000003 3.3314853515625 0.9045000000000003 L 3.6599853515625 0.9045000000000003 Q 3.7589853515625 0.9045000000000003 3.8182353515625 0.9652500000000003 Q 3.8774853515625 1.0260000000000002 3.8774853515625 1.1205000000000003 Q 3.8774853515625 1.1925000000000003 3.8399853515625 1.2480000000000002 Q 3.8024853515625 1.3035000000000003 3.7364853515625 1.3350000000000002 Q 3.6704853515625 1.3665000000000003 3.5849853515625 1.3665000000000003 L 3.2099853515625 1.3665000000000003 M 3.2969853515625 1.2270000000000003 L 3.5744853515625 1.2270000000000003 Q 3.6014853515625003 1.2270000000000003 3.6224853515625 1.2172500000000002 Q 3.6434853515625 1.2075000000000002 3.6554853515625 1.1902500000000003 Q 3.6674853515625 1.1730000000000003 3.6674853515625 1.1505000000000003 Q 3.6674853515625 1.1115000000000002 3.6434853515625 1.0920000000000003 Q 3.6194853515625 1.0725000000000002 3.5834853515625 1.0725000000000002 L 3.2969853515625 1.0725000000000002 Q 3.2609853515625 1.0725000000000002 3.2377353515625 1.0935000000000001 Q 3.2144853515625 1.1145000000000003 3.2144853515625 1.1490000000000002 Q 3.2144853515625 1.1835000000000002 3.2377353515625 1.2052500000000002 Q 3.2609853515625 1.2270000000000003 3.2969853515625 1.2270000000000003 M 3.4334853515625 0.6720000000000002 Q 3.5069853515625002 0.6720000000000002 3.5452353515625 0.6382500000000002 Q 3.5834853515625 0.6045000000000003 3.5834853515625 0.5415000000000002 Q 3.5834853515625 0.47850000000000026 3.5452353515625 0.4447500000000002 Q 3.5069853515625002 0.41100000000000025 3.4334853515625 0.41100000000000025 Q 3.3614853515625 0.41100000000000025 3.3232353515625 0.4447500000000002 Q 3.2849853515625 0.47850000000000026 3.2849853515625 0.5415000000000002 Q 3.2849853515625 0.5820000000000002 3.3014853515625 0.6120000000000002 Q 3.3179853515625 0.6420000000000002 3.3509853515625 0.6570000000000003 Q 3.3839853515625 0.6720000000000002 3.4334853515625 0.6720000000000002 M 4.349977294921875 1.1025000000000003 Q 4.219477294921875 1.1025000000000003 4.130977294921875 1.0582500000000001 Q 4.042477294921875 1.0140000000000002 3.997477294921875 0.9225000000000002 Q 3.952477294921875 0.8310000000000002 3.952477294921875 0.6900000000000002 Q 3.952477294921875 0.5475000000000002 3.997477294921875 0.4567500000000002 Q 4.042477294921875 0.3660000000000002 4.130227294921875 0.3217500000000002 Q 4.217977294921875 0.2775000000000002 4.345477294921875 0.2775000000000002 Q 4.465477294921875 0.2775000000000002 4.547977294921875 0.32025000000000026 Q 4.630477294921875 0.3630000000000002 4.672477294921875 0.45225000000000026 Q 4.714477294921875 0.5415000000000002 4.714477294921875 0.6825000000000002 L 4.714477294921875 0.7365000000000002 L 4.163977294921875 0.7365000000000002 Q 4.166977294921875 0.8055000000000002 4.185727294921875 0.8535000000000003 Q 4.204477294921875 0.9015000000000002 4.244227294921875 0.9247500000000002 Q 4.283977294921875 0.9480000000000002 4.349977294921875 0.9480000000000002 Q 4.385977294921875 0.9480000000000002 4.415227294921875 0.9390000000000003 Q 4.444477294921875 0.9300000000000003 4.465477294921875 0.9120000000000003 Q 4.486477294921875 0.8940000000000002 4.498477294921875 0.8670000000000002 Q 4.510477294921875 0.8400000000000003 4.510477294921875 0.8055000000000002 L 4.714477294921875 0.8055000000000002 Q 4.714477294921875 0.8805000000000003 4.687477294921875 0.9360000000000003 Q 4.660477294921875 0.9915000000000003 4.612477294921875 1.0282500000000003 Q 4.5644772949218755 1.0650000000000002 4.497727294921875 1.0837500000000002 Q 4.430977294921875 1.1025000000000003 4.349977294921875 1.1025000000000003 M 4.166977294921875 0.6045000000000003 L 4.499977294921875 0.6045000000000003 Q 4.499977294921875 0.5595000000000002 4.488727294921875 0.5265000000000002 Q 4.477477294921875 0.49350000000000027 4.457977294921875 0.47250000000000025 Q 4.438477294921875 0.45150000000000023 4.410727294921875 0.4417500000000002 Q 4.382977294921875 0.4320000000000003 4.348477294921875 0.4320000000000003 Q 4.291477294921875 0.4320000000000003 4.253227294921875 0.4507500000000002 Q 4.214977294921875 0.46950000000000025 4.194727294921875 0.5077500000000003 Q 4.174477294921875 0.5460000000000003 4.166977294921875 0.6045000000000003 M 5.102953857421875 1.1025000000000003 Q 5.027953857421875 1.1025000000000003 4.981453857421875 1.0755000000000003 Q 4.934953857421875 1.0485000000000002 4.913953857421875 1.0027500000000003 Q 4.892953857421875 0.9570000000000003 4.892953857421875 0.9015000000000002 L 4.892953857421875 0.4560000000000002 L 4.795453857421875 0.4560000000000002 L 4.795453857421875 0.2955000000000002 L 4.900453857421875 0.2955000000000002 L 4.939453857421875 0.07050000000000023 L 5.101453857421875 0.07050000000000023 L 5.101453857421875 0.2955000000000002 L 5.245453857421875 0.2955000000000002 L 5.245453857421875 0.4560000000000002 L 5.101453857421875 0.4560000000000002 L 5.101453857421875 0.8670000000000002 Q 5.101453857421875 0.9030000000000002 5.117953857421875 0.9217500000000003 Q 5.1344538574218745 0.9405000000000002 5.171953857421875 0.9405000000000002 L 5.245453857421875 0.9405000000000002 L 5.245453857421875 1.0785000000000002 Q 5.227453857421875 1.0845000000000002 5.203453857421875 1.0897500000000002 Q 5.179453857421875 1.0950000000000002 5.152453857421875 1.0987500000000003 Q 5.125453857421875 1.1025000000000003 5.102953857421875 1.1025000000000003 M 5.968399658203125 1.0845000000000002 L 5.596399658203125 0.05550000000000033 L 5.837899658203125 0.05550000000000033 L 6.059899658203125 0.7125000000000002 Q 6.065899658203125 0.7290000000000003 6.073399658203125 0.7522500000000003 Q 6.080899658203125 0.7755000000000003 6.088399658203125 0.7980000000000003 Q 6.095899658203125 0.8205000000000002 6.100399658203125 0.8385000000000002 L 6.109399658203125 0.8385000000000002 Q 6.115399658203125 0.8220000000000003 6.122149658203125 0.8002500000000002 Q 6.1288996582031245 0.7785000000000002 6.135649658203125 0.7560000000000002 Q 6.142399658203125 0.7335000000000003 6.148399658203125 0.7140000000000002 L 6.370399658203125 0.05550000000000033 L 6.602899658203125 0.05550000000000033 L 6.229399658203125 1.0845000000000002 L 5.968399658203125 1.0845000000000002 M 6.995851318359375 1.1025000000000003 Q 6.865351318359375 1.1025000000000003 6.776851318359375 1.0582500000000001 Q 6.688351318359375 1.0140000000000002 6.643351318359375 0.9225000000000002 Q 6.598351318359375 0.8310000000000002 6.598351318359375 0.6900000000000002 Q 6.598351318359375 0.5475000000000002 6.643351318359375 0.4567500000000002 Q 6.688351318359375 0.3660000000000002 6.776101318359375 0.3217500000000002 Q 6.863851318359375 0.2775000000000002 6.991351318359375 0.2775000000000002 Q 7.111351318359375 0.2775000000000002 7.193851318359375 0.32025000000000026 Q 7.276351318359375 0.3630000000000002 7.318351318359375 0.45225000000000026 Q 7.360351318359375 0.5415000000000002 7.360351318359375 0.6825000000000002 L 7.360351318359375 0.7365000000000002 L 6.809851318359375 0.7365000000000002 Q 6.812851318359375 0.8055000000000002 6.831601318359375 0.8535000000000003 Q 6.850351318359375 0.9015000000000002 6.890101318359375 0.9247500000000002 Q 6.929851318359375 0.9480000000000002 6.995851318359375 0.9480000000000002 Q 7.031851318359375 0.9480000000000002 7.061101318359375 0.9390000000000003 Q 7.090351318359375 0.9300000000000003 7.111351318359375 0.9120000000000003 Q 7.132351318359375 0.8940000000000002 7.144351318359375 0.8670000000000002 Q 7.156351318359375 0.8400000000000003 7.156351318359375 0.8055000000000002 L 7.360351318359375 0.8055000000000002 Q 7.360351318359375 0.8805000000000003 7.333351318359375 0.9360000000000003 Q 7.306351318359375 0.9915000000000003 7.258351318359375 1.0282500000000003 Q 7.2103513183593755 1.0650000000000002 7.143601318359375 1.0837500000000002 Q 7.076851318359375 1.1025000000000003 6.995851318359375 1.1025000000000003 M 6.812851318359375 0.6045000000000003 L 7.145851318359375 0.6045000000000003 Q 7.145851318359375 0.5595000000000002 7.134601318359375 0.5265000000000002 Q 7.123351318359375 0.49350000000000027 7.103851318359375 0.47250000000000025 Q 7.084351318359375 0.45150000000000023 7.056601318359375 0.4417500000000002 Q 7.028851318359375 0.4320000000000003 6.994351318359375 0.4320000000000003 Q 6.937351318359375 0.4320000000000003 6.899101318359375 0.4507500000000002 Q 6.860851318359375 0.46950000000000025 6.840601318359375 0.5077500000000003 Q 6.820351318359375 0.5460000000000003 6.812851318359375 0.6045000000000003 M 7.513327880859375 1.0845000000000002 L 7.513327880859375 0.2955000000000002 L 7.685827880859375 0.2955000000000002 L 7.702327880859375 0.4185000000000002 L 7.712827880859375 0.4185000000000002 Q 7.727827880859375 0.3795000000000003 7.751827880859375 0.3472500000000003 Q 7.775827880859375 0.3150000000000003 7.811827880859375 0.2955000000000002 Q 7.847827880859375 0.27600000000000025 7.895827880859375 0.27600000000000025 Q 7.921327880859375 0.27600000000000025 7.942327880859375 0.2812500000000002 Q 7.963327880859375 0.2865000000000002 7.973827880859375 0.29100000000000026 L 7.973827880859375 0.4800000000000002 L 7.909327880859375 0.4800000000000002 Q 7.862827880859375 0.4800000000000002 7.827577880859375 0.49275000000000024 Q 7.792327880859375 0.5055000000000003 7.768327880859375 0.5325000000000002 Q 7.744327880859375 0.5595000000000002 7.733077880859375 0.5985000000000003 Q 7.721827880859375 0.6375000000000002 7.721827880859375 0.6900000000000002 L 7.721827880859375 1.0845000000000002 L 7.513327880859375 1.0845000000000002 M 8.402835205078125 1.1025000000000003 Q 8.320335205078125 1.1025000000000003 8.254335205078124 1.0845000000000002 Q 8.188335205078126 1.0665000000000002 8.141835205078126 1.0342500000000003 Q 8.095335205078126 1.0020000000000002 8.070585205078125 0.9570000000000003 Q 8.045835205078125 0.9120000000000003 8.045835205078125 0.8550000000000002 Q 8.045835205078125 0.8490000000000002 8.045835205078125 0.8430000000000002 Q 8.045835205078125 0.8370000000000002 8.047335205078125 0.8340000000000003 L 8.248335205078124 0.8340000000000003 Q 8.248335205078124 0.8370000000000002 8.248335205078124 0.8400000000000003 Q 8.248335205078124 0.8430000000000002 8.248335205078124 0.8460000000000002 Q 8.249835205078124 0.8835000000000002 8.272335205078125 0.9067500000000003 Q 8.294835205078124 0.9300000000000003 8.331585205078126 0.9405000000000002 Q 8.368335205078125 0.9510000000000003 8.408835205078125 0.9510000000000003 Q 8.444835205078125 0.9510000000000003 8.478585205078126 0.9442500000000003 Q 8.512335205078125 0.9375000000000002 8.535585205078124 0.9195000000000002 Q 8.558835205078125 0.9015000000000002 8.558835205078125 0.8730000000000002 Q 8.558835205078125 0.8370000000000002 8.529585205078124 0.8175000000000002 Q 8.500335205078125 0.7980000000000003 8.453085205078125 0.7860000000000003 Q 8.405835205078125 0.7740000000000002 8.350335205078125 0.7590000000000002 Q 8.299335205078124 0.7470000000000002 8.248335205078124 0.7312500000000002 Q 8.197335205078126 0.7155000000000002 8.156085205078124 0.6900000000000002 Q 8.114835205078125 0.6645000000000003 8.089335205078125 0.6232500000000003 Q 8.063835205078124 0.5820000000000002 8.063835205078124 0.5190000000000002 Q 8.063835205078124 0.45750000000000024 8.090835205078125 0.4117500000000003 Q 8.117835205078125 0.3660000000000002 8.165085205078125 0.3360000000000002 Q 8.212335205078125 0.30600000000000027 8.276085205078125 0.2917500000000002 Q 8.339835205078124 0.2775000000000002 8.413335205078125 0.2775000000000002 Q 8.482335205078124 0.2775000000000002 8.542335205078125 0.2917500000000002 Q 8.602335205078125 0.30600000000000027 8.647335205078125 0.3337500000000002 Q 8.692335205078125 0.36150000000000027 8.717835205078124 0.4027500000000003 Q 8.743335205078125 0.4440000000000003 8.743335205078125 0.4950000000000002 Q 8.743335205078125 0.5055000000000003 8.743335205078125 0.5145000000000002 Q 8.743335205078125 0.5235000000000002 8.741835205078125 0.5265000000000002 L 8.542335205078125 0.5265000000000002 L 8.542335205078125 0.5145000000000002 Q 8.542335205078125 0.48750000000000027 8.525835205078124 0.4687500000000002 Q 8.509335205078125 0.4500000000000002 8.478585205078126 0.4395000000000002 Q 8.447835205078125 0.42900000000000027 8.404335205078125 0.42900000000000027 Q 8.374335205078125 0.42900000000000027 8.349585205078125 0.4335000000000002 Q 8.324835205078125 0.4380000000000003 8.306835205078125 0.4470000000000002 Q 8.288835205078126 0.4560000000000002 8.279085205078125 0.4687500000000002 Q 8.269335205078125 0.48150000000000026 8.269335205078125 0.4995000000000003 Q 8.269335205078125 0.5250000000000002 8.291085205078126 0.5407500000000002 Q 8.312835205078125 0.5565000000000002 8.348835205078124 0.5670000000000003 Q 8.384835205078126 0.5775000000000002 8.428335205078126 0.5895000000000002 Q 8.482335205078124 0.6045000000000003 8.541585205078125 0.6187500000000002 Q 8.600835205078125 0.6330000000000002 8.651835205078125 0.6570000000000003 Q 8.702835205078125 0.6810000000000003 8.734335205078125 0.7252500000000002 Q 8.765835205078124 0.7695000000000003 8.765835205078124 0.8445000000000003 Q 8.765835205078124 0.9165000000000002 8.738085205078125 0.9660000000000002 Q 8.710335205078126 1.0155000000000003 8.660835205078126 1.0455000000000003 Q 8.611335205078126 1.0755000000000003 8.545335205078125 1.0890000000000002 Q 8.479335205078126 1.1025000000000003 8.402835205078125 1.1025000000000003 M 9.2757890625 1.1025000000000003 Q 9.1452890625 1.1025000000000003 9.0567890625 1.0582500000000001 Q 8.9682890625 1.0140000000000002 8.9232890625 0.9225000000000002 Q 8.8782890625 0.8310000000000002 8.8782890625 0.6900000000000002 Q 8.8782890625 0.5475000000000002 8.9232890625 0.4567500000000002 Q 8.9682890625 0.3660000000000002 9.0560390625 0.3217500000000002 Q 9.1437890625 0.2775000000000002 9.2712890625 0.2775000000000002 Q 9.3912890625 0.2775000000000002 9.4737890625 0.32025000000000026 Q 9.5562890625 0.3630000000000002 9.5982890625 0.45225000000000026 Q 9.6402890625 0.5415000000000002 9.6402890625 0.6825000000000002 L 9.6402890625 0.7365000000000002 L 9.0897890625 0.7365000000000002 Q 9.0927890625 0.8055000000000002 9.1115390625 0.8535000000000003 Q 9.1302890625 0.9015000000000002 9.1700390625 0.9247500000000002 Q 9.2097890625 0.9480000000000002 9.2757890625 0.9480000000000002 Q 9.3117890625 0.9480000000000002 9.3410390625 0.9390000000000003 Q 9.3702890625 0.9300000000000003 9.3912890625 0.9120000000000003 Q 9.4122890625 0.8940000000000002 9.4242890625 0.8670000000000002 Q 9.4362890625 0.8400000000000003 9.4362890625 0.8055000000000002 L 9.6402890625 0.8055000000000002 Q 9.6402890625 0.8805000000000003 9.6132890625 0.9360000000000003 Q 9.5862890625 0.9915000000000003 9.5382890625 1.0282500000000003 Q 9.4902890625 1.0650000000000002 9.4235390625 1.0837500000000002 Q 9.3567890625 1.1025000000000003 9.2757890625 1.1025000000000003 M 9.0927890625 0.6045000000000003 L 9.4257890625 0.6045000000000003 Q 9.4257890625 0.5595000000000002 9.4145390625 0.5265000000000002 Q 9.4032890625 0.49350000000000027 9.3837890625 0.47250000000000025 Q 9.3642890625 0.45150000000000023 9.3365390625 0.4417500000000002 Q 9.3087890625 0.4320000000000003 9.2742890625 0.4320000000000003 Q 9.2172890625 0.4320000000000003 9.1790390625 0.4507500000000002 Q 9.1407890625 0.46950000000000025 9.1205390625 0.5077500000000003 Q 9.1002890625 0.5460000000000003 9.0927890625 0.6045000000000003" fill="#000000" fill-rule="nonzero"></path></g><g></g></g><defs><clipPath id="SvgjsClipPath12064"><path d=" M 0.6495936232522093 -8.648078378495581 h 8.398078378495581 v 8.398078378495581 h -8.398078378495581 Z"></path></clipPath><clipPath id="SvgjsClipPath12062329ccbf2-c84b-4fd4-a129-d33d2b750d6f"><path d=" M 0.6495936232522093 -8.648078378495581 L 9.04767200174779 -8.648078378495581 L 9.04767200174779 -0.25 L 0.6495936232522093 -0.25 Z"></path></clipPath></defs></svg>